{"title":"This Means War 2012 DVDRiP XViD AC3-ART3MiS","uid":7232942,"size":732353484,"categoryP":"video","categoryS":"movies","magnet":"?xt=urn:btih:efdcf2b2eea9b9defcd93328286b7517f3819b20&amp;dn=This+Means+War+2012+DVDRiP+XViD+AC3-ART3MiS&amp;tr=udp%3A%2F%2Ftracker.openbittorrent.com%3A80&amp;tr=udp%3A%2F%2Fopen.demonii.com%3A1337&amp;tr=udp%3A%2F%2Ftracker.coppersurfer.tk%3A6969&amp;tr=udp%3A%2F%2Fexodus.desync.com%3A6969","seeders":0,"leechers":0,"uploader":"neon","files":-1,"time":1335896485,"description":"Two CIA agents, Tuck and Frank who are also best friends, have been benched because someone's after them. Tuck is divorced with a son whom he's not close to and Frank is a ladies man. Tuck decides to try and find someone so he places his profile on a dating website. Lauren, a woman also looking for a guy sees tuck's profile and goes with him. She later bumps into Frank and he hits on her and she goes out with him. she's intrigued by both of them. When they learn that they're dating the same girl, they agree to let her choose. But both can't help but use their skills to keep tabs on her and each other. And also sabotage each others dates with her.\n \nCast: Angela Bassett, Reese Witherspoon, Til Schweiger, Aleks Paunovic, Lossen Chambers\n &lt;a href=&quot;\nhttp://www.imdb.com/title/tt1596350/&quot; rel=&quot;nofollow&quot; target=&quot;_NEW&quot;&gt;\nhttp://www.imdb.com/title/tt1596350/&lt;/a&gt;\n &lt;a href=&quot;\nhttp://www.shotpix.com/images/47336218686000880681.jpg&quot; rel=&quot;nofollow&quot; target=&quot;_NEW&quot;&gt;\nhttp://www.shotpix.com/images/47336218686000880681.jpg&lt;/a&gt;\n\nComplete name : This Means War 2012 DVDRiP.XViD.AC3-ART3MiS.avi\n Format : AVI\n Format/Info : Audio Video Interleave\n File size : 697 MiB\n Duration : 1h 37mn\n Overall bit rate : 999 Kbps\n Writing application : Nandub v1.0rc2\n Writing library : VirtualDub build 32842/release\n \nVideo\n ID : 0\n Format : MPEG-4 Visual\n Format profile : Advanced Simple@L5\n Format settings, BVOP : 2\n Format settings, QPel : No\n Format settings, GMC : No warppoints\n Format settings, Matrix : Default (H.263)\n Codec ID : XVID\n Codec ID/Hint : XviD\n Duration : 1h 37mn\n Bit rate : 861 Kbps\n Width : 640 pixels\n Height : 272 pixels\n Display aspect ratio : 2.35:1\n Frame rate : 23.976 fps\n Color space : YUV\n Chroma subsampling : 4:2:0\n Bit depth : 8 bits\n Scan type : Progressive\n Compression mode : Lossy\n Bits/(Pixel*Frame) : 0.206\n Stream size : 601 MiB (86%)\n Writing library : XviD 61\n \nAudio\n ID : 1\n Format : AC-3\n Format/Info : Audio Coding 3\n Mode extension : CM (complete main)\n Format settings, Endianness : Big\n Codec ID : 2000\n Duration : 1h 37mn\n Bit rate mode : Constant\n Bit rate : 128 Kbps\n Channel(s) : 2 channels\n Channel positions : Front: L R\n Sampling rate : 48.0 KHz\n Bit depth : 16 bits\n Compression mode : Lossy\n Stream size : 89.3 MiB (13%)\n Alignment : Aligned on interleaves\n Interleave, duration : 42 ms (1.00 video frame)\n Interleave, preload duration : 512 ms","torrent":{"xt":"urn:btih:efdcf2b2eea9b9defcd93328286b7517f3819b20","amp;dn":"This+Means+War+2012+DVDRiP+XViD+AC3-ART3MiS","amp;tr":["udp%3A%2F%2Ftracker.openbittorrent.com%3A80","udp%3A%2F%2Fopen.demonii.com%3A1337","udp%3A%2F%2Ftracker.coppersurfer.tk%3A6969","udp%3A%2F%2Fexodus.desync.com%3A6969"],"infoHash":"efdcf2b2eea9b9defcd93328286b7517f3819b20","infoHashBuffer":{"type":"Buffer","data":[239,220,242,178,238,169,185,222,252,217,51,40,40,107,117,23,243,129,155,32]},"announce":[],"urlList":[]}}